<?xml version="1.0" standalone="no"?><!DOCTYPE svg PUBLIC "-//W3C//DTD SVG 1.1//EN" "http://www.w3.org/Graphics/SVG/1.1/DTD/svg11.dtd"><svg t="1505548797030" class="icon" style="" viewBox="0 0 1024 1024" version="1.1" xmlns="http://www.w3.org/2000/svg" p-id="703" xmlns:xlink="http://www.w3.org/1999/xlink" width="32" height="32"><defs><style type="text/css"></style></defs><path d="M439.94 757.86c-28.468-22.125-67.638-20.982-94.722 0.518a77.108 77.108 0 0 0-12.96 13.084 76.836 76.836 0 0 0-11.737 21.415 75.588 75.588 0 0 1-1.565 4.899c-0.192 0.539-0.404 1.072-0.609 1.608a76.215 76.215 0 0 1-11.028 19.614c-17.144 22.058-43.981 32.13-69.827 28.907 8.271 15.131 19.691 28.86 34.174 40.116 55.314 42.993 134.458 34.123 179.01-19.224 0.94-1.124 1.882-2.243 2.789-3.406a77.557 77.557 0 0 0 5.888-8.836c8.537-14.876 11.618-31.738 9.541-47.944-2.481-19.387-12.32-37.821-28.954-50.75zM860.931 118.945l-10.896-7.037c-8.005-5.17-18.523-3.991-25.214 2.794-20.69 20.981-45.562 48.953-72.696 81.087a3324.824 3324.824 0 0 0-31.352 37.724c-128.791 157.191-289.042 377.61-305.24 402.689-15.332 23.74 8.388 68.953 20.59 95.76l29.842 19.274c29.453 0.096 80.459 3.144 95.792-20.596 15.554-24.084 140.667-243.354 230.547-421.942a3842.122 3842.122 0 0 0 24.418-49.348c21.651-44.607 39.887-84.817 52.033-116.273 3.432-8.89 0.181-18.962-7.824-24.132zM486.295 248.68a38.643 38.643 0 1 0 79.087 0 38.643 38.643 0 1 0-79.087 0zM324.641 369.07a38.643 38.643 0 1 0 79.087 0 38.643 38.643 0 1 0-79.087 0zM285.098 551.543a38.643 38.643 0 1 0 79.087 0 38.643 38.643 0 1 0-79.087 0zM724.204 598.586c83.876 178.154-67.736 201.405-159.01 212.598-1.3 18.54-9.526 35.87-22.995 50.87 93.09-4.05 217.014-42.717 243.822-132.57 13.11-43.945-12.47-130.946-30.661-174.608-11.9 15.927-18.928 28.782-31.156 43.71z" fill="#1296db" p-id="704"></path><path d="M295.794 717.278c-52.764-53.514-87.039-125.298-92.352-204.886a326.467 326.467 0 0 1-0.73-21.727c0-178.07 144.871-322.942 322.942-322.942 39.96 0 78.236 7.315 113.587 20.647 9.277-14.158 28.654-25.301 52.872-30.297-51.032-25.61-107.699-39.175-166.459-39.175-99.303 0-192.661 38.67-262.878 108.888-70.217 70.218-108.887 163.576-108.887 262.878 0 9.899 0.401 19.734 1.162 29.497 6.035 77.385 35.772 149.979 85.685 209.321 19.698-1.879 38.27-6.088 55.058-12.204z" fill="#1296db" p-id="705"></path></svg>