<?xml version="1.0" standalone="no"?><!DOCTYPE svg PUBLIC "-//W3C//DTD SVG 1.1//EN" "http://www.w3.org/Graphics/SVG/1.1/DTD/svg11.dtd"><svg t="1505549934296" class="icon" style="" viewBox="0 0 1024 1024" version="1.1" xmlns="http://www.w3.org/2000/svg" p-id="2229" xmlns:xlink="http://www.w3.org/1999/xlink" width="32" height="32"><defs><style type="text/css"></style></defs><path d="M953.856 292.352c-3.584-3.584-8.192-5.632-13.312-5.632-12.288 0-26.624 10.752-35.84 20.48L563.2 638.464c-12.288 12.288-58.368 87.04-60.416 90.112l-7.68 12.288 12.288-7.68c3.072-2.048 78.848-48.64 91.648-60.416l341.504-331.776c14.848-14.848 26.624-35.328 13.312-48.64zM740.864 395.264c0 27.648-22.528 50.176-50.176 50.176s-50.176-22.528-50.176-50.176 22.528-50.176 50.176-50.176 50.176 22.528 50.176 50.176zM215.04 570.368c-27.648 0-50.176-22.528-50.176-50.176s22.528-50.176 50.176-50.176 50.176 22.528 50.176 50.176c0 28.16-22.528 50.176-50.176 50.176zM290.304 395.264c0-27.648 22.528-50.176 50.176-50.176s50.176 22.528 50.176 50.176-22.528 50.176-50.176 50.176-50.176-22.528-50.176-50.176zM465.408 345.088c0-27.648 22.528-50.176 50.176-50.176s50.176 22.528 50.176 50.176-22.528 50.176-50.176 50.176-50.176-22.528-50.176-50.176z" p-id="2230" fill="#1296db"></path><path d="M858.112 514.048c-23.04 148.992-163.84 305.152-357.376 305.152-36.864 0-76.288-7.168-107.52-19.968-33.792-13.312-49.152-34.304-51.712-45.056-1.536-5.632-3.072-11.264-4.608-17.408-4.608-18.432-9.728-33.792-20.48-51.2-18.432-30.72-45.056-36.864-64-36.864-7.168 0-14.848 1.024-22.528 2.56-12.8 3.072-25.6 4.608-37.376 4.608-25.088 0-77.824-16.896-78.848-61.44-6.656-228.352 190.976-352.256 379.904-373.76 13.312-1.536 27.648-2.048 42.496-2.048 53.248 0 111.616 10.24 152.576 26.112 9.216 3.584 14.336 6.144 39.424 18.432 25.6 12.8 46.592 30.72 62.976 47.616l30.208-48.128c-17.92-16.896-40.448-34.304-67.072-47.616-25.088-12.288-31.744-15.36-43.52-19.968-47.616-18.432-114.176-30.208-174.08-30.208-16.896 0-33.792 1.024-49.152 2.56-115.712 13.312-220.672 58.88-296.448 129.024-87.04 79.36-130.048 184.832-126.976 304.64 1.024 34.304 15.36 62.976 40.96 82.432 22.528 16.896 52.736 26.112 87.04 26.112 16.384 0 33.28-2.048 50.176-6.144 3.584-1.024 6.656-1.024 9.728-1.024 11.264 0 16.896 10.24 27.136 49.152 1.536 6.656 3.584 13.312 5.12 19.968 9.216 31.744 39.424 58.88 86.528 77.824 38.4 15.36 85.504 24.064 129.536 24.064 54.272 0 106.496-10.24 155.648-30.208 46.08-18.944 88.576-45.568 125.952-80.384 35.84-33.28 65.536-71.68 88.064-115.2 22.528-43.008 36.864-88.576 42.496-135.168 0.512-2.048 0.512-4.096 0.512-6.656v-1.536c0-2.56 0.512-4.608 0.512-7.168l-55.296 16.896z" p-id="2231" fill="#1296db"></path></svg>