<?xml version="1.0" standalone="no"?><!DOCTYPE svg PUBLIC "-//W3C//DTD SVG 1.1//EN" "http://www.w3.org/Graphics/SVG/1.1/DTD/svg11.dtd"><svg t="1505549833071" class="icon" style="" viewBox="0 0 1024 1024" version="1.1" xmlns="http://www.w3.org/2000/svg" p-id="1910" xmlns:xlink="http://www.w3.org/1999/xlink" width="32" height="32"><defs><style type="text/css"></style></defs><path d="M993.357619 326.418558l-295.906409-295.804019C677.178037 10.238976 650.351919 0 623.525802 0c-25.59744 0-51.092491 9.215078-71.058494 27.645235-0.307169 0.20478-0.511949 0.511949-0.819118 0.716729-0.20478 0.10239-0.307169 0.307169-0.409559 0.409559-0.307169 0.307169-0.614339 0.511949-0.921508 0.819118l-0.819118 0.819118-230.786521 230.991301L69.699585 510.412959c-7.064894 7.064894-11.570043 15.768023-13.617839 24.880712l-2.969303 10.955704-1.740626 1.740626 1.023898 1.023898L3.04385 733.008299c-1.740626 4.914709-2.662134 10.136586-2.969303 15.256075-0.716728 16.689531 6.860114 32.764724 19.761224 42.901309l212.868313 212.868314c7.781622 9.829417 18.839716 16.689531 31.126488 18.942105 3.276472 0.716728 6.655334 1.023898 10.034196 1.023898 6.348165 0 12.79872-1.228677 18.737326-3.583642L488.473707 967.890411c9.112689-2.047795 17.815818-6.552945 24.983102-13.720228l479.081692-479.184082 0.819118-0.819118 0.716728-0.819118c0.307169-0.307169 0.511949-0.614339 0.921508-0.921508l0.409559-0.409559c0.307169-0.307169 0.511949-0.511949 0.716728-0.819118 37.884212-40.751125 36.962704-105.154285-2.764523-144.779122zM279.393815 970.859714l-3.686031 0.614339-2.662134 1.023897-1.843016-2.457354-2.252574-2.252575L56.081746 754.919708l-2.252574-2.969303-2.457355-1.945405 1.126288-3.686032 41.570243-155.325267 338.910109 338.910109-153.584642 40.955904z m678.741726-533.860214L484.582896 909.118688l-370.650935-370.650935 240.923108-240.923107 232.424758-232.322368c9.829417-9.010299 22.628137-14.027397 36.245975-14.027397 14.334567 0 27.747625 5.426657 37.781822 15.460853l295.906409 295.80402c19.966003 20.068393 20.580342 53.345065 0.921508 74.539746z" p-id="1911" fill="#1296db"></path></svg>